# xmcd
#
# Track frame offsets:
#	150
#	19126
#	23370
#	52945
#	74691
#	79590
#	95079
#	100674
#	122706
#	127005
#	132454
#	142280
#	153660
#	170268
#	175961
#	180849
#	192083
#	218604
#	229627
#	236403
#	248409
#	278906
#	286893
#	293900
#	297706
#	310398
#	328506
#	341689
#
# Disc length: 4722 seconds
# Revision: 0
# Processed by: cddbd v1.5.2PL0 Copyright (c) Steve Scherf et al.
# Submitted via: dBpowerAMP V12.0
#
DISCID=9c12701c
DTITLE=28.1.1944 - 16.3.1944 - Tagebuch CD5
DYEAR=2009
DGENRE=
TTITLE0=109
TTITLE1=110
TTITLE2=111
TTITLE3=112
TTITLE4=113
TTITLE5=114
TTITLE6=115
TTITLE7=116
TTITLE8=117
TTITLE9=118
TTITLE10=119
TTITLE11=120
TTITLE12=121
TTITLE13=122
TTITLE14=123
TTITLE15=124
TTITLE16=125
TTITLE17=126
TTITLE18=127
TTITLE19=128
TTITLE20=129
TTITLE21=130
TTITLE22=131
TTITLE23=132
TTITLE24=133
TTITLE25=134
TTITLE26=135
TTITLE27=136
EXTD=
EXTT0=
EXTT1=
EXTT2=
EXTT3=
EXTT4=
EXTT5=
EXTT6=
EXTT7=
EXTT8=
EXTT9=
EXTT10=
EXTT11=
EXTT12=
EXTT13=
EXTT14=
EXTT15=
EXTT16=
EXTT17=
EXTT18=
EXTT19=
EXTT20=
EXTT21=
EXTT22=
EXTT23=
EXTT24=
EXTT25=
EXTT26=
EXTT27=
PLAYORDER=
